<?xml version="1.0" standalone="no"?>
<!DOCTYPE svg PUBLIC "-//W3C//DTD SVG 20010904//EN"
 "http://www.w3.org/TR/2001/REC-SVG-20010904/DTD/svg10.dtd">
<svg version="1.0" xmlns="http://www.w3.org/2000/svg"
 width="192.000000pt" height="192.000000pt" viewBox="0 0 192.000000 192.000000"
 preserveAspectRatio="xMidYMid meet">
<metadata>
Created by potrace 1.14, written by Peter Selinger 2001-2017
</metadata>
<g transform="translate(0.000000,192.000000) scale(0.100000,-0.100000)"
fill="#000000" stroke="none">
<path d="M295 1906 c-149 -36 -256 -148 -284 -296 -14 -73 -13 -1225 0 -1300
30 -158 147 -273 305 -299 91 -15 1239 -13 1306 3 150 35 249 133 284 285 11
44 13 192 11 686 l-2 630 -25 65 c-45 116 -154 205 -281 229 -82 15 -1250 12
-1314 -3z"/>
</g>
</svg>
